<svg width="1444" height="2326" viewBox="0 0 1444 2326" fill="none" xmlns="http://www.w3.org/2000/svg">
<path fill-rule="evenodd" clip-rule="evenodd" d="M285.581 785.92C275.238 792.555 266.654 797.087 258.567 800.183L246.672 804.735L257.859 811.223C265.457 815.63 272.682 821.25 279.947 828.407L285.554 833.932L288.259 826.056C291.813 815.71 293.543 803.941 293.399 791.076L293.285 780.978L285.581 785.92ZM782.398 819.336C772.719 839.324 761.035 859.002 749.734 878.032C724.794 920.032 699.005 963.463 691.064 1015.4C690.138 1021.86 689.74 1044.59 689.74 1044.59L697.132 1041.15C721.818 1029.64 748.01 1021.08 773.338 1012.81C783.129 1009.61 793.25 1006.3 803.172 1002.86C807.212 1001.62 811.23 1000.18 815.118 998.779C824.549 995.386 833.46 992.18 842.827 991.634L845.679 991.468L847.106 988.64C860.013 963.06 850.334 938.677 839.25 915.892C832.593 899.283 824.03 883.679 815.747 868.584C807.162 852.94 798.285 836.764 791.799 819.835L787.539 808.72L782.398 819.336ZM306.046 1031.23C320.719 1048.83 334.348 1066.71 346.555 1084.37L355.825 1079.5C351.344 1053.4 337.432 1035.02 312.043 1021.64L306.046 1031.23ZM796.905 1424.33C795.436 1424.33 794.058 1424.98 793.026 1426.16C791.978 1427.36 791.404 1428.98 791.408 1430.71L796.905 1430.69V1424.33ZM186.337 1859.38C177.716 1842.44 176.449 1815.86 189.369 1801.45C185.023 1770.32 193.56 1735.54 212.466 1710.76L212.51 1710.83C240.581 1662.7 242.644 1645.55 222.134 1591.75C185.48 1590.14 147.725 1589.66 111.936 1579.86L113.275 1570.7C111.95 1570.3 105.183 1568.27 103.73 1567.84C103.924 1569.54 104.933 1577.32 104.909 1578.87C103.237 1580.97 99.1958 1582.91 98.4443 1578.79C75.9304 1468.61 55.7812 1360.62 33.8875 1250.6C10.9737 1139.56 -35.1074 961.964 77.6906 900.769L75.3618 889.392C69.1329 889.394 66.63 881.622 63.7745 870.643C51.0474 831.363 75.7948 792.85 98.9369 768.555C130.569 732.296 159.751 692.04 187.981 653.124C268.508 541.028 378.077 391.442 518.136 416.855L517.665 423.458C539.574 426.612 562.45 433.245 584.634 428.625C660.375 413.602 742.776 447.588 789.359 517.369L791.07 504.363C791.231 503.136 791.614 502.001 793.311 502.001C795.53 501.911 796.703 503.99 797.524 505.908C877.925 542.296 911.23 660.737 936.923 741.919C940.203 755.641 939.278 759.701 938.992 760.508L934.327 763.691C982.782 837.506 1009.41 926.291 1032.25 1010.48C1039.8 1032.92 1040.59 1048.47 1027.98 1062.04C1111.12 1119.25 1176.36 1208.4 1139.48 1310.04C1091.33 1408.94 963.858 1471.69 868.109 1528.49C830.087 1552.08 774.785 1564.64 739.798 1603.27C737.46 1607.22 734.106 1611.08 732.074 1610.76C715.835 1613.51 691.667 1497.37 695.34 1488.07C678.199 1495.09 659.13 1494.72 641.201 1498.38C642.807 1502.42 648.068 1507.89 644.132 1512.39C644.399 1526.03 642.567 1540.77 639.945 1554.68C661.461 1550.73 660.973 1563.65 640.272 1556.81C639.71 1562.84 638.274 1578.19 637.725 1584.02C643.903 1580.91 656.202 1578.72 660.509 1583.59C658.749 1590.07 643.51 1583.97 637.64 1585.89C634.206 1615.05 633.086 1643.71 630.677 1672.79C648.996 1692.77 677.61 1697.5 693.958 1719.11C707.81 1735.56 705.812 1763.16 689.562 1776.39C699.515 1789.76 691.55 1811.95 677.017 1815.57C657.219 1820.87 636.523 1813.55 617.002 1807.4C584.553 1795.16 550.568 1776.09 513.114 1749.09C498.297 1738.52 487.261 1721.91 482.018 1702.32C444.019 1568.21 433.865 1477.09 451.801 1431.35C462.036 1422.5 473.445 1427.96 482.895 1423.13C487.399 1420.82 491.459 1417.72 494.733 1406.73C445.435 1401.19 373.571 1411.49 334.054 1384.44L335.444 1381.05C331.795 1378.39 323.777 1367.23 320.726 1363.64C326.225 1439.38 330.644 1517.07 332.832 1592.54C340.08 1606.5 346.236 1620.95 352.993 1637.07C357.693 1642.35 365.915 1651.41 361.091 1657.41C361.09 1657.41 401.666 1766.2 414.065 1821.2C425.871 1821.77 430.658 1844.67 430.208 1859.88C428.413 1887.56 397.39 1890.49 370.194 1893.21C351.585 1895.44 332.452 1896.6 313.603 1896.6C279.546 1896.63 194.393 1893.95 186.337 1859.38Z" fill="white"/>
<path fill-rule="evenodd" clip-rule="evenodd" d="M669.107 1482.66C655.713 1486.27 642.207 1489.27 628.734 1492.48C625.277 1494.22 607.892 1494.5 611.062 1500.99C611.045 1501.01 611.036 1501.03 611.019 1501.04C614.558 1504.16 619.35 1502.4 623.616 1502.8C590.481 1518.33 567.757 1486.34 573.856 1449.82C574.721 1443.3 575.842 1435.88 578.3 1429.92C579.601 1427.25 588.943 1406.67 590.59 1413.69C589.297 1414.58 592.957 1414.95 592.446 1411.76C706.228 1410.32 678.212 1350.46 689.01 1477.56C682.318 1478.14 675.634 1480.9 669.107 1482.66M641.454 1538.15C640.829 1541.34 640.138 1544.59 639.328 1547.73C617.069 1552.16 600.697 1565.08 635.943 1562.64C634.928 1567.4 633.974 1572.18 633.073 1576.98C628.712 1578.9 612.867 1584.98 613.677 1590.78C619.17 1592.19 625.166 1589.59 630.808 1589.86C627.142 1617.65 621.787 1646.07 622.276 1674.23C622.211 1683.51 634.589 1685.26 636.178 1676.06C651.167 1701.25 696.381 1711.08 692.091 1747.89C689.699 1755.41 686.57 1760.54 679.842 1760.81C675.067 1762.22 669.738 1768.67 672.484 1774.43L672.362 1774.48C672.881 1779.69 678.084 1781.57 681.496 1783.07C684.89 1786.09 685.012 1790.96 682.318 1795.51C669.139 1811.4 631.557 1795.57 615.218 1790.35C582.06 1777.17 550.721 1758.1 520.822 1737.22C506.806 1727.99 497.173 1712.52 492.61 1694.93C472.058 1611.23 445.392 1522.4 457.481 1434.84C462.718 1426.32 474.062 1427.87 481.446 1423.35C469.237 1474.89 489.472 1528.41 497.706 1579.22C514.701 1670.72 528.092 1743.69 616.2 1774.22C628.089 1777.07 653.72 1787.38 662.537 1775.95C665.346 1772.88 665.066 1767.74 662.537 1764.61C658.078 1757.79 650.701 1758.61 644.044 1757.83C626.8 1755.37 609.925 1749.38 594.546 1740.11C560.352 1720.79 536.587 1683.52 530.543 1640.56C520.284 1592.19 511.072 1543.43 499.083 1495.56C490.881 1463 477.483 1434.66 507.15 1410.68C527.226 1411.36 547.322 1411.99 567.407 1412.07C562.462 1421.58 556.991 1433.56 559.778 1444.83C547.53 1476.6 563.345 1518.94 593.854 1527.04C610.739 1531.2 628.269 1526.25 643.851 1518.08C643.606 1524.79 642.862 1531.28 641.454 1538.15M328.568 1382.55C328.481 1381.25 328.394 1379.94 328.306 1378.63C329.855 1380.58 331.63 1382.33 333.537 1383.91C331.893 1383.43 330.248 1382.94 328.568 1382.55M331.516 1597.08C333.124 1603.71 334.92 1610.28 336.87 1616.79C307.896 1607.22 269.262 1599.27 245.179 1625.26C241.74 1614.66 237.639 1604.61 231.89 1595.53C261.211 1591.72 290.752 1593.83 320.065 1590.41C322.23 1595.1 327.181 1597.88 331.516 1597.08M241.889 1673.57C241.994 1673.23 242.108 1672.89 242.213 1672.56C243.865 1672.33 245.505 1672.1 247.147 1671.85C245.389 1672.4 243.639 1672.97 241.889 1673.57M343.975 1639.89C345.068 1644.17 347.959 1646.81 350.876 1647.09C353.762 1650.7 354.906 1656.15 358.76 1658.61C373.359 1713.85 392.992 1767.51 402.885 1824.31C335.223 1849.37 271.803 1850.8 203.712 1825.54C205.348 1823.7 206.118 1821.23 206.153 1818.49C206.196 1818.54 206.248 1818.58 206.301 1818.63C197.092 1766.92 202.286 1750.65 225.802 1706.44C257.397 1704.89 289.088 1703.55 320.713 1704.63C328.139 1705.63 342.551 1698.64 336.058 1688.49C328.438 1678.93 316.46 1681.52 306.226 1682.14C282.343 1683.52 258.515 1687.54 235.757 1696.12C238.148 1690.31 238.891 1683.4 240.814 1677.23C262.876 1674.37 285.156 1673.7 307.284 1675.8C315.534 1676.69 325.253 1681.22 332.391 1674.64C345.143 1649.28 254.867 1663.18 244.488 1666.01C247.905 1656.84 251.55 1647.32 249.99 1637.02C272.739 1616.54 320.428 1623.61 343.975 1639.89M410.908 1842.29C412.727 1843.75 415.055 1843.68 417.024 1842.68C421.579 1855.29 418.417 1868.18 405.807 1871.14C382.827 1877.3 358.875 1878.45 335.375 1880.03C310.364 1881.15 285.264 1880.32 260.349 1877.61C220.367 1876.24 184.845 1863.38 186.477 1809.72C188.077 1816.89 189.122 1827.87 197.168 1828.32C259.957 1866.24 341.481 1869.85 406.272 1836.89C407.392 1838.93 408.869 1840.66 410.908 1842.29M111.198 1574.34C111.189 1574.19 111.189 1574.06 111.171 1573.91C111.846 1574.12 112.524 1574.34 113.209 1574.53C112.537 1574.46 111.872 1574.39 111.198 1574.34M289.324 789.154C289.447 800.245 288.112 811.486 284.546 821.864C277.452 814.874 269.789 808.734 261.408 803.874C271.143 800.147 280.373 794.895 289.324 789.154M87.2617 890.374C88.5731 887.727 82.7371 890.96 81.829 891.094C85.6319 887.6 84.8568 880.174 80.4476 878.184C59.5364 836.494 84.9032 798.635 111.715 770.934C157.474 719.182 194.718 658.902 237.262 603.834C290.933 614.071 342.776 640.358 382.817 682.704C341.81 725.963 299.035 771.43 247.429 797.287C242.631 794.627 236.251 795.353 234.655 801.304C228.733 802.537 222.829 804.261 216.922 805.364C216.624 805.414 216.668 805.914 216.922 805.994C222.728 808.282 228.712 809.805 234.917 809.353C294.6 833.129 316.926 906.577 359.388 954.547C394.057 989.238 443.782 1014.84 448.786 1073.86C457.135 1092.93 463.163 1112.85 460.948 1134.21C461.53 1150.9 456.436 1167.46 460.598 1183.64C451.844 1221.92 441.809 1261.74 416.735 1290.6C416.026 1290.4 415.291 1290.45 414.609 1290.83C416.41 1278.04 418.344 1265.27 420.252 1252.5C427.478 1235.61 432.096 1217.44 435.124 1199C436.355 1189.71 424.42 1187.85 423.917 1197.31C415.776 1230.49 405.912 1269.8 377.612 1289.09C382.761 1266.8 388.976 1244.77 397.55 1223.88C400.83 1216.93 403.927 1209.86 406.963 1202.77C410.235 1195.09 400.462 1188.34 396.832 1196C383.614 1224.81 371.147 1257.44 345.969 1274.68C353.917 1244.63 364.388 1215.19 374.312 1185.88C375.416 1182.87 373.123 1179.31 370.649 1178.5C367.63 1177.51 365.286 1179.72 364.192 1182.69C360.208 1193.26 357.185 1205.48 350.755 1214.63C348.169 1224.77 330.121 1240.44 339.294 1217.19C348.213 1187.29 354.269 1155.39 367.07 1127.49C370.59 1076.9 363.906 1045.25 321.254 1021.82C315.07 1018.28 307.398 1013.75 299.979 1012.23C279.245 988.643 257.103 966.724 233.29 946.834C185.037 905.137 111.678 867.889 56.3537 914.414C65.2333 904.384 75.5398 896.094 87.2617 890.374M297.696 530.234C355.018 466.285 429.691 415.303 511.961 415.284C511.225 415.564 511.095 416.584 511.532 417.244C449.116 717.661 748.791 834.446 803.237 504.824C860.397 547.458 903.744 658.446 923.519 731.784C872.276 736.327 826.166 773.327 796.308 819.624C793.736 814.619 793.178 808.678 800.124 810.134C801.712 808.395 794.449 809.387 793.841 810.804C807.659 777.082 821.873 742.173 829.936 705.373C830.173 704.444 829.028 703.924 828.591 704.724C816.474 726.794 803.737 748.384 791.918 770.664C751.93 860.156 672.111 938.788 675.503 1045.66C675.486 1045.67 675.476 1045.68 675.468 1045.69C677.017 1048.79 676.397 1053.09 678.757 1055.79C666.461 1118.03 635.801 1181.63 586.009 1213.68C548.392 1233.5 507.451 1210.53 474.982 1188.06C473.783 1174.92 472.578 1161.79 471.369 1148.65C477.282 1146.95 476.529 1134.59 476.704 1129.15C477.945 1106.25 472.767 1083.79 462.12 1064.16C457.208 1035.04 443.436 1009.15 423.523 990.244C410.225 977.254 395.449 966.464 381.908 953.844C345.953 920.453 326.69 870.841 294.905 833.074C298.735 817.229 299.544 801.368 295.448 785.074C318.165 768.31 441.963 675.967 418.985 643.656C415.659 638.004 408.442 639.004 406.543 645.514C404.147 654.36 400.592 662.535 394.707 669.024C353.085 625.861 297.702 597.225 240.874 599.094C259.072 575.314 277.872 552.103 297.696 530.234M516.895 420.674C552.405 440.854 595.228 426.894 633.108 428.664C691.366 431.301 747.891 464.061 783.999 516.433C769.864 587.814 736.161 668.993 667.594 685.374C599.635 699.339 539.573 632.75 523.352 561.524C512.474 515.822 512.248 467.501 516.895 420.674M1005.92 930.603C1011.13 946.704 1016.07 962.914 1020.86 979.184C1025.69 995.758 1031.37 1012.21 1035.32 1029.09C1033.68 1037.17 1029.76 1043.62 1025.83 1050.4C996.499 1100.86 936.842 1096.14 893.477 1120.63C886.653 1124.33 878.403 1128.94 872.428 1135.44C864.385 1138.87 862.099 1149.8 863.375 1158.68C870.432 1203.63 876.182 1248.12 877.886 1293.7C878.438 1306.28 878.789 1319.42 875.35 1331.43C862.832 1319.92 855.576 1253.52 855.237 1233.9C855.08 1228.97 849.657 1228.65 848.151 1232.8C829.731 1290.43 839.318 1353.74 837.033 1413.84C810.947 1370.46 810.875 1315.73 809.459 1265.04C809.151 1256.93 798.304 1256.84 798.364 1265.04C796.799 1318.38 803.541 1376.39 798.453 1428.31C779.006 1373.54 773.548 1312.05 778.583 1253.38C769.297 1284.33 769.625 1326.77 772.715 1361.51C763.594 1362.67 769.692 1392.43 766.931 1400.95C715.504 1265.87 768.597 1186.69 825.12 1072.64C836.933 1039.58 869.438 980.316 860.131 946.644C856.813 934.804 850.916 924.194 845.378 913.603C829.641 883.749 813.361 854.277 798.26 824.004C800.936 821.584 803.553 819.084 806.134 816.534C840.694 781.268 872.222 753.768 920.921 749.794C958.789 803.771 985.186 865.89 1005.92 930.603M798.251 1428.85C797.927 1429.93 797.429 1427.8 798.4 1428.45C798.355 1428.58 798.294 1428.71 798.251 1428.85M843.594 1340.21C843.822 1318.09 843.58 1295.75 846.236 1273.83C845.194 1295.95 844.469 1318.09 843.594 1340.21M825.205 987.634C782.184 1002.63 738.178 1014.57 696.323 1033.59C698.51 950.94 755.371 889.235 788.165 820.244C801.094 853.989 822.319 883.026 835.737 916.604C846.037 937.756 855.433 960.455 843.733 983.643C837.609 983.393 830.787 986.004 825.205 987.634M351.367 1077.89C338.542 1059.58 325.122 1041.94 311.02 1025.09C332.094 1036.2 347.227 1051.75 351.848 1078.65C351.7 1078.4 351.541 1078.15 351.367 1077.89M585.132 1411.97C583.561 1413.31 582.933 1413.97 581.79 1414.98C582.897 1414.04 583.864 1412.44 585.132 1411.97M1145.74 1192.54C1125.65 1133.99 1083.13 1090.77 1037.15 1058.6C1048.7 1043.22 1043.88 1023.48 1038.35 1006.39C1015.29 921.597 989.311 835.871 943.133 763.474C952.833 756.855 932.632 705.864 929.723 693.584C904.961 624.692 867.835 525.419 802.284 498.994C798.852 492.14 788.327 491.78 787.053 501.474C737.763 435.498 659.092 406.694 584.904 420.717C562.693 425.156 541.409 418.57 519.476 415.504C530.297 416.014 541.058 417.504 551.651 420.164C552.483 420.374 552.798 419.044 552.002 418.724C484.964 389.94 409.917 413.086 352.11 457.045C248.734 536.935 183.389 662.499 96.5359 762.164C71.7946 788.474 48.1399 825.919 58.875 866.444C61.8031 876.872 64.488 893.396 76.5362 893.393C-41.4233 960.129 7.32087 1134.84 29.9442 1249.93C51.7083 1359.29 72.1918 1469 94.5141 1578.19C96.2201 1586.31 103.867 1586.79 108.214 1582.65C144.434 1593.29 182.543 1594.03 219.765 1595.6C238.786 1647.42 235.367 1659.47 209.276 1705.57C209.679 1705.49 210.151 1705.43 210.728 1705.41C210.115 1705.45 209.426 1705.67 208.917 1706.14C209.025 1705.97 209.112 1705.88 209.276 1705.57C207.421 1705.94 207.43 1706.78 207.885 1706.95C208.199 1706.64 208.524 1706.36 208.873 1706.12C208.855 1706.18 208.855 1706.21 208.909 1706.15C208.637 1706.9 208.174 1707.06 207.885 1706.95C190.265 1732.06 181.207 1765.48 185.016 1797.52C172.116 1814.09 173.571 1841.79 182.898 1860.25C194.466 1885.97 220.142 1892.92 243.369 1895.24C271.879 1899.52 300.662 1901.26 329.409 1900.37C343.615 1899.93 357.796 1898.87 371.935 1897.17C396.134 1894.18 432.965 1893.95 436.61 1858.43C437.415 1845.22 432.507 1817.57 419.517 1814.16C407.303 1760.59 392.355 1706.12 364.804 1659.96C373.066 1651.87 364.66 1637.95 358.462 1631.43C352.536 1617.31 346.563 1603.21 339.643 1589.67C341.558 1581.53 336.793 1576.48 337.738 1568.41C337.959 1507.06 332.438 1445.92 328.717 1384.74C366.618 1415.16 441.571 1405.89 488.086 1410.05C480.876 1428.53 460.933 1410.27 448.561 1425.95C421.765 1492.08 458.76 1633.56 478.172 1702.07C483.715 1722.78 495.376 1740.67 511.489 1752.16C544.464 1775.93 579.547 1797.17 616.652 1811.14C636.763 1817.52 658.591 1825.07 679.431 1819.4C695.6 1814.92 706.17 1792.67 697.426 1775.58C713.703 1758.84 713.349 1731.01 699.131 1713.22C682.86 1691.34 655.653 1686.51 637.324 1668.28C639.452 1642 640.559 1615.81 643.466 1589.63C650.212 1589.25 656.953 1592.55 663.282 1588.97C675.366 1575.65 654.736 1570.12 644.97 1573.58C645.329 1569.76 645.68 1565.95 646.039 1562.13C667.43 1567.59 668.141 1543.91 647.621 1545.99C649.547 1534.83 650.591 1523.47 650.56 1512.19C652.625 1508.64 652.495 1504.31 650.797 1500.98C664.165 1498.66 678.43 1498.56 691.381 1494.1C691.662 1513.36 717.172 1651.52 744.79 1605.39C759.593 1587.48 779.781 1576.83 799.546 1567.64C823.717 1556.24 847.75 1544.47 871.483 1531.93C942.064 1494.6 1010.34 1451.12 1073.37 1398.89C1136.96 1352.1 1177.75 1278.92 1145.74 1192.54" fill="#313D41"/>
<path fill-rule="evenodd" clip-rule="evenodd" d="M843.234 309.364C841.295 290.116 843.804 249.882 843.972 247.438C845.035 231.985 838.627 170.965 826.513 176.587C806.193 158.411 779.128 154.398 753.821 152.48C701.253 148.497 645.33 157.641 604.738 197.614C584.664 218.372 565.121 248.565 566.692 280.002C548.453 309.8 522.741 350.675 545.466 385.512C553.19 396.642 565.467 400.787 575.171 409.216C594.689 427.004 606.934 452.533 626.638 470.215C678.839 523.217 767.477 534.289 818.764 474.004C858.424 430.343 852.011 365.025 845.035 309.364C840.345 271.943 847.016 346.916 843.234 309.364Z" fill="white"/>
<path fill-rule="evenodd" clip-rule="evenodd" d="M683.597 70.8531C697.656 67.6476 712.092 65.653 726.449 66.2534L727.556 66.302C738.358 66.7898 752.038 67.8689 761.462 74.9664C762.004 74.3518 762.876 74.0363 763.667 74.4627C774.865 80.5024 787.182 84.869 798.973 89.2082C810.71 93.5261 822.887 96.3765 835.189 97.5254C839.817 97.9579 843.778 103.605 840.847 108.67C840.15 109.876 839.471 111.096 838.795 112.318C839.926 112.184 841.057 112.047 842.189 111.918C845.911 111.494 849.63 115.983 849.409 120.078C849.271 122.654 849.025 125.199 848.661 127.714C850.079 127.68 851.488 127.92 852.85 128.57C859.745 131.86 859.265 141.14 858.749 148.201C858.034 157.998 854.791 168.376 848.769 175.709C853.265 180.986 856.448 187.287 858.347 194.771C859.724 200.235 860.49 206.056 860.112 211.745L859.991 213.448C859.524 219.621 858.594 226.456 854.663 230.897C852.646 233.187 850.16 234.021 847.79 233.756C849.223 247.983 850.142 262.291 851.007 276.548L851.412 283.362C853.341 316.313 854.79 349.479 854.411 382.484C854.059 413.329 848.665 443.267 831.922 468.311C816.674 491.117 794.78 507.928 770.013 514.319C756.665 517.769 743.039 518.013 729.529 515.815C722.981 514.746 716.389 513.108 710.174 510.523C703.294 507.653 698.349 503.43 693.72 497.1C691.53 494.098 692.584 487.708 696.944 488.308C703.538 489.211 709.557 490.3 715.879 492.504L716.784 492.826C723.081 495.106 729.601 496.805 736.184 497.528C749.667 499.003 763.356 497.518 776.272 492.898C797.302 485.367 815.414 468.586 827.023 447.501C840.802 422.508 842.361 394.136 842.162 365.398C841.948 333.863 841.041 302.31 839.559 270.807L839.307 265.558C838.523 249.347 837.766 233.125 837.101 216.904C836.894 211.816 836.578 206.687 836.01 201.609C830.814 198.17 826.158 193.427 823.123 187.576C817.026 190.425 810.613 192.481 804.713 194.119C791.047 197.917 776.858 198.839 762.948 196.461C759.196 198.212 755.369 199.752 751.484 201.077C750.434 201.603 749.384 202.12 748.334 202.627C738.967 207.155 729.465 210.992 719.577 213.801L717.148 214.485C711.944 215.934 706.292 217.362 700.754 217.81C699.844 218.207 698.863 218.543 697.79 218.838C692.747 220.222 687.514 220.659 682.345 220.171C677.309 219.693 673.671 213.943 676.445 208.56C678.471 204.632 680.517 200.714 682.579 196.806C675.401 200.185 667.989 202.993 660.514 205.375C652.966 207.776 645.311 209.801 637.646 211.664C633.548 212.651 629.433 213.526 625.344 214.513C622.417 215.215 617.923 215.581 615.535 217.759C612.897 220.151 612.149 225.727 611.149 229.167C609.834 233.634 608.6 238.122 607.474 242.661C605.233 251.718 603.395 260.907 601.972 270.188C600.549 279.479 599.594 288.861 599.062 298.275C598.532 307.678 598.765 317.142 597.91 326.504C597.45 331.47 592.732 334.024 589.246 330.554C588.837 330.147 588.425 329.735 588.017 329.319L587.409 328.692C584.427 325.639 581.536 322.403 579.15 318.76C578.718 318.088 578.304 317.386 577.916 316.673C577.853 316.673 577.799 316.653 577.736 316.602L577.075 316.04C569.791 309.914 557.622 301.927 550.519 312.104C548.256 315.346 547.097 319.475 546.135 323.457L544.448 330.585C543.356 335.239 542.329 339.918 541.728 344.679C540.368 355.344 541.052 367.637 547.547 376.185C550.141 379.604 553.716 382.046 557.705 382.688C559.931 383.034 562.128 382.606 564.335 382.291C566.577 381.975 568.738 382.484 570.981 382.24C574.548 381.843 576.106 386.666 574.773 389.699C574.053 391.327 573.205 392.732 572.242 393.922C573.016 394.675 573.755 395.489 574.467 396.344C576.574 397.107 578.465 398.746 579.88 400.913C581.024 402.664 581.617 404.567 581.717 406.571C581.842 407.07 581.95 407.579 582.05 408.098L583.982 411.641C584.407 412.418 584.831 413.186 585.256 413.939C590.173 422.691 595.632 430.099 602.414 437.08C608.943 443.797 616.03 449.811 622.165 457.016L622.887 457.871C628.606 464.68 634.634 472.922 632.396 482.823C631.819 485.367 628.675 487.199 626.623 485.479C620.021 479.943 616.697 471.171 611.096 464.455C605.331 457.535 598.945 451.317 593.164 444.417C587.696 437.905 583.382 430.527 580.132 422.406C578.834 424.024 576.944 425.174 574.323 425.622C569.82 426.385 565.622 423.403 563.659 418.997C562.398 419.628 561.111 420.198 559.813 420.645C552.986 423.006 548.691 414.428 551.267 408.088C552.644 404.689 554.364 401.738 556.499 399.255C549.825 398.217 543.034 394.319 538.648 389.455C527.643 377.233 526.13 358.865 528.607 342.532C529.922 333.872 532.19 325.11 535.136 316.979C535.649 315.564 536.199 314.14 536.801 312.735C536.468 312.725 536.126 312.562 535.91 312.247C533.919 309.173 531.498 306.66 530.02 303.22C528.66 300.066 527.148 296.87 526.075 293.583C523.869 286.857 522.789 279.265 522.068 272.152C520.582 257.589 521.157 243.119 523.131 228.648C526.489 204.001 534.602 180.414 546.554 159.717C545.904 159.331 545.28 158.864 544.699 158.313L544.412 158.03L543.945 157.554C540.535 154.066 540.829 147.53 543.945 143.998L544.93 142.883C546.176 141.484 547.25 140.376 549.264 138.853C549.561 138.628 549.864 138.416 550.171 138.219C549.118 136.019 548.752 133.446 549.486 130.608C552.044 120.72 564.635 121.07 572.615 125.382C581.444 116.479 591.234 108.75 601.845 102.491C627.118 87.5932 655.694 77.2032 683.597 70.8531ZM552.96 331.266C557.679 329.526 563.948 333.179 568.19 335.378C573.567 338.166 578.142 342.287 582.573 346.643C584.779 348.821 585.175 352.382 584.626 355.425C584.571 355.73 584.518 356.046 584.454 356.361C583.869 359.608 580.663 362.162 577.826 362.07C571.89 361.887 569.063 356.097 565.703 351.192C565.308 351.985 564.812 352.718 564.199 353.268L563.785 353.634C562.391 354.834 560.854 355.792 559.011 355.7C557.705 355.629 556.454 355.252 555.301 354.57C552.419 352.85 551.15 348.637 551.932 345.208C552.419 343.051 553.536 341.361 554.995 340.191L554.451 339.771C553.287 338.856 552.226 337.891 551.399 336.467L551.212 336.131H551.284C550.383 334.38 550.97 331.999 552.96 331.266Z" fill="#313D41"/>
<path fill-rule="evenodd" clip-rule="evenodd" d="M826.22 340.533C815.256 353.351 796.952 357.029 782.365 350.155C744.91 332.449 763.243 277.224 792.129 262.393C795.738 261.376 800.557 258.961 804.953 258.414C805.35 258.193 806.215 258.832 807.264 258.228C839.115 262.251 846.369 318.194 826.22 340.533M705.41 343.814C693.113 362.267 670.251 367.961 651.572 359.382C614.671 342.94 627.759 293.969 653.006 274.771C706.338 252.097 728.361 309.789 705.41 343.814M625.417 302.926C625.383 302.907 625.348 302.898 625.313 302.88C625.508 302.783 625.703 302.686 625.897 302.587C625.834 302.774 625.765 302.959 625.704 303.146C625.608 303.071 625.524 302.984 625.417 302.926M851.607 282.978C848.596 282.986 844.247 283.545 841.754 285.909C835.608 262.457 812.921 240.752 793.191 256.579C777.654 262.232 766.125 274.77 759.572 291.438C747.757 283.487 729.179 286.882 718.934 297.397C712.225 272.312 695.711 263.529 676.056 262.232C654.603 258.256 633.22 281.829 626.548 300.739C621.001 300.025 612.712 298.028 607.493 301.901C573.622 291.851 514.404 286.31 507.518 291.894C502.61 294.024 499.918 307.129 506.772 307.836C512.745 306.877 506.075 298.234 512.095 297.291C544.175 295.041 575.317 302.351 607.057 305.418C609.891 309.731 619.047 311.173 623.931 309.44C616.238 341.519 632.845 363.343 657.729 369.88C696.26 379.894 729.783 340.897 719.707 300.334C731.379 293.764 744.805 294.046 757.52 297.507C736.273 385.979 862.211 382.009 842.542 288.94C855.632 296.307 858.474 284.465 851.607 282.978" fill="#313D41"/>
<path fill-rule="evenodd" clip-rule="evenodd" d="M743.387 468.06C749.952 466.936 757.012 462.363 763.282 466.08C766.213 467.817 767.605 473.757 765.623 477.059C762.596 482.102 759.471 482.937 754.558 483.422C750.875 483.785 747.171 483.812 743.498 483.289L742.563 483.149C736.008 482.108 729.194 479.857 724.116 474.439C723.077 473.33 723.609 470.935 724.943 470.589C730.974 469.028 737.282 469.106 743.387 468.06ZM735.66 449.467C735.658 449.401 735.739 449.401 735.741 449.467C735.9 454.081 736.955 458.36 738.903 462.308C738.93 462.365 738.86 462.415 738.833 462.359C736.883 458.408 735.819 454.086 735.66 449.467ZM756.354 354.222C762.913 359.125 772.906 370.559 765.851 382.715C757.546 393.433 745.589 381.144 739.696 375.586C734.233 371.278 728.094 382.357 733.163 387.386C775.741 426.159 793.02 355.504 759.672 348.456C756 347.68 754.636 352.705 756.354 354.222ZM789.922 299.348C791.462 299.348 792.935 299.991 794.277 301.181C795.597 302.352 796.792 304.061 797.788 306.192C799.671 310.226 800.849 315.795 800.849 321.953C800.849 328.111 799.671 333.68 797.788 337.713C796.792 339.845 795.597 341.553 794.277 342.724C792.935 343.914 791.462 344.557 789.922 344.557C788.382 344.557 786.909 343.914 785.568 342.724C784.248 341.553 783.052 339.845 782.057 337.713C780.173 333.68 778.995 328.111 778.995 321.953C778.995 315.795 780.173 310.226 782.057 306.192C783.052 304.061 784.248 302.352 785.568 301.181C786.909 299.991 788.382 299.348 789.922 299.348ZM718.602 305.629L719.182 305.494C722.565 304.737 724.274 304.992 727.22 307.828C729.434 309.959 728.8 314.156 727.22 316.397C724.468 320.303 721.779 319.611 718.01 319.76L717.745 319.772C714.604 319.929 711.46 320.039 708.316 320.098C707.456 320.115 706.595 320.111 705.735 320.117C705.827 329.903 701.239 337.354 695.198 343.019C691.293 346.682 686.354 342.456 684.961 337.897C683.808 334.124 683.56 329.485 684.158 325.354C684.379 323.831 684.841 322.178 685.546 320.769L685.745 320.39L685.713 319.85C685.705 319.716 685.713 319.587 685.709 319.454C680.101 319.034 674.525 318.343 668.951 317.473L667.093 317.177C662.335 316.403 655.348 316.154 651.498 312.348C651.376 312.226 651.419 311.96 651.548 311.875C653.665 310.473 655.812 310.553 658.179 310.423L658.519 310.403C661.093 310.24 663.661 310.103 666.234 309.995L668.809 309.896C675.394 309.664 681.985 309.271 688.564 308.84C689.708 308.766 690.852 308.677 691.997 308.59C693.195 307.973 694.468 307.603 695.726 307.535C696.768 307.477 697.77 307.655 698.713 308.023C701.116 307.795 703.517 307.546 705.917 307.279L708.316 307.005C711.701 306.609 715.26 306.436 718.602 305.629ZM760.177 232.282C767.414 227.908 776.214 227.801 783.667 231.421L784.161 231.667C791.689 235.51 800.76 244.385 798.796 255.44C796.999 265.559 784.096 263.844 783.442 254.28C779.275 247.18 769.933 245.623 764.06 250.137C760.498 252.876 758.053 257.488 756.382 262.139C754.958 266.1 754.69 270.992 752.502 274.442C752.431 274.554 752.288 274.575 752.185 274.545C745.66 272.688 745.509 259.936 746.622 253.751C748.238 244.759 753.426 236.365 760.177 232.282Z" fill="#313D41"/>
<path fill-rule="evenodd" clip-rule="evenodd" d="M796.888 449.006C793.809 448.311 790.785 447.502 787.747 446.722C772.213 441.338 753.449 440.362 737.159 444.896C729.163 447.121 721.707 451.12 713.684 453.74C711.779 454.231 709.857 454.676 707.915 455.05C706.724 454.764 705.533 454.46 704.351 454.155C695.841 451.942 687.836 449.212 680.065 446.209C679.236 445.403 678.375 444.621 677.451 443.869C683.075 443.318 688.581 442.403 693.562 441.458C708.859 438.567 723.273 433.855 738.516 430.836C752.71 428.018 768.112 426.478 782.368 429.978C789.134 431.64 795.088 434.549 801.669 436.509C805.074 437.52 809.158 438.512 813.137 438.658C810.57 442.9 807.324 446.863 802.886 450.162C800.857 449.864 798.846 449.444 796.888 449.006ZM829.987 415.776C828.625 416.557 823.004 419.077 821.18 420.579C820.709 420.455 820.241 420.329 819.775 420.199C818.973 419.519 817.792 419.221 816.588 419.239C808.182 416.541 800.699 412.729 794.021 407.949C789.275 404.559 784.414 401.01 778.072 399.044C770.6 396.719 763.252 397.79 755.401 398.143C747.047 398.527 738.799 396.889 730.454 397.674C724.349 398.253 718.633 400.036 713.693 402.55C703.61 407.681 696.659 414.888 688.137 421.103C678.469 428.152 666.578 432.656 653.354 434.957C653.196 434.884 653.028 434.811 652.86 434.744C643.113 428.657 634.309 421.785 626.52 414.462C618.916 407.31 598.864 375.116 594.021 372.292C592.01 371.117 589.805 370.612 587.696 370.654C583.877 370.715 580.348 372.547 578.769 375.433C576.087 380.339 577.428 386.681 577.64 391.813C577.905 398.094 578.505 404.37 579.457 410.621C580.401 416.8 581.654 422.96 583.215 429.077C584 432.169 584.874 435.255 585.835 438.329C586.135 439.297 586.514 440.161 586.973 440.965C587.441 442.48 587.943 443.99 588.482 445.487C591.993 455.293 597.532 465.112 608.109 472.349C619.118 479.891 634.08 484.9 647.973 489.38C661.205 493.647 675.073 497.44 689.302 500.41C701.661 504.275 714.893 507.331 728.178 508.938C742.804 510.709 758.179 510.819 772.303 507.313C779.245 505.59 785.808 503.186 791.763 500.191C800.205 497.166 807.8 493.008 814.019 487.506C825.158 477.644 830.475 465.677 832.801 453.336C833.397 450.178 835.635 438.072 835.811 436.188C836.38 430.101 836.948 424.015 837.517 417.928C837.785 415.056 832.675 414.236 829.987 415.776Z" fill="#313D41"/>
</svg>
