<svg width="1040" height="1040" viewBox="0 0 1040 1040" fill="none" xmlns="http://www.w3.org/2000/svg">
<g id="Mono/Bottom/User Interface">
<g id="Ink">
<g id="Group 3">
<path id="Fill 1" fill-rule="evenodd" clip-rule="evenodd" d="M168.019 567.308C171.395 581.01 162.931 660.137 176.592 657.383C186.893 653.001 204.859 656.133 208.28 642.967C219.904 605.192 237.085 568.332 263.231 539.152C294.797 502.799 339.986 480.927 379.053 520.721C490.064 623.003 416.521 572.224 501.655 534.426C527.924 527.744 564.68 577.54 585.203 593.339C607.876 610.329 594.621 620.919 574.446 605.535C563.652 596.505 552.632 587.744 541.893 578.648C528.843 571.062 513.649 541.423 497.895 557.883C478.873 572.769 465.977 617.222 436.039 600.857C398.191 578.154 374.41 529.142 330.516 518.313C271.404 529.325 245.23 594.396 220.868 642.698C218.724 647.127 220.127 649.213 224.975 648.993C353.549 640.546 482.028 632.6 610.924 631.404C685.653 630.768 654.101 621.153 650.487 545.357C645.022 506.022 642.666 466.422 638.646 426.971C640.651 410.721 628.259 418.972 618.256 418.722C555.148 420.179 492.073 419.406 429.017 423.633C343.203 431.179 256.926 429.581 171.157 437.444C166.716 438.2 165.425 439.648 165.545 444.384C166.731 485.399 169.962 526.252 168.019 567.308M279.631 660.097C274.904 666.827 265.199 660.31 259.383 663.393C233.19 669.022 205.25 668.332 178.355 671.635C164.045 673.62 172.993 696.482 169.706 706.735C166.205 756.163 170.018 805.719 172.41 855.118C321.752 855.076 484.371 852.073 637.992 859.956C715 861.473 683.745 862.176 679.36 766.187C674.267 728.642 671.657 690.624 665.525 653.224C661.898 634.082 664.142 636.021 645.808 636.891C634.321 637.436 622.834 637.978 611.344 638.445C521.107 641.295 429.489 649.914 341.042 657.393C336.43 659.613 329.795 657.829 324.767 657.275C311.045 660.251 292.968 668.11 279.502 660.042C280.864 660.919 282.2 661.307 283.793 660.854C282.457 660.305 281.062 660.151 279.631 660.097M634.353 403.861C638.373 394.113 630.624 351.959 629.373 338.634C594.617 339.618 559.667 342.02 524.905 343.776C403.469 349.521 282.125 357.257 160.557 359.709C146.746 357.588 126.611 363.953 116.475 353.448C114.097 348.4 121.248 347.455 124.604 346.56C254.469 330.807 385.851 328.438 516.432 320.886C547.105 319.373 577.775 317.824 608.448 316.295C627.579 315.329 654.574 309.683 660.197 334.544C687.053 505.228 689.311 676.411 707.883 847.834C709.403 860.772 706.73 879.935 689.784 878.988C662.21 876.003 634.539 874.504 606.774 874.767C546.203 873.496 485.59 874.713 424.996 874.711C338.227 873.767 250.491 879.192 164.562 865.747C149.158 869.889 156.904 835.764 153.302 826.712C151.557 800.332 148.812 773.964 148.461 747.518C150.107 661.732 143.717 576.076 143.416 490.282C140.63 456.123 144.293 420.501 135.819 387.253C131.855 365.893 159.731 373.06 159.567 390.464C166.276 458.614 168.7 413.951 267.678 415.591C333.349 414.252 399.725 404.545 464.492 406.824C518.555 399.792 578.085 406.616 634.353 403.861" fill="#313D41"/>
</g>
<path id="Fill 3" fill-rule="evenodd" clip-rule="evenodd" d="M213.263 160.149C233.042 161.901 259.036 163.808 277.714 175.164C289.372 180.682 303.976 198.027 280.39 193.143C250.681 185.323 220.022 184.631 189.955 179.595C154.981 163.414 194.509 159.098 213.263 160.149" fill="#313D41"/>
<path id="Fill 6" fill-rule="evenodd" clip-rule="evenodd" d="M866.301 748.066C885.536 744.621 954.888 876.723 910.33 836.303C902.641 825.601 837.509 750.104 866.301 748.066" fill="#313D41"/>
<path id="Fill 10" fill-rule="evenodd" clip-rule="evenodd" d="M805 796.415C784.636 802.515 771.378 759.205 759.642 745.627C755.171 734.738 739.476 721.219 747.02 709.409C750.561 707.277 756.685 703.598 759.839 708.238C779.27 734.986 791.621 766.147 805 796.415" fill="#313D41"/>
<path id="Fill 20" fill-rule="evenodd" clip-rule="evenodd" d="M268.343 268C255.167 264.837 154.751 265.224 168.244 244.201C177.811 233.148 329.996 267.285 268.343 268" fill="#313D41"/>
<path id="Fill 22" fill-rule="evenodd" clip-rule="evenodd" d="M351.057 240C362.541 241.209 424.646 247.442 409.689 267.153C396.623 272.991 296.726 246.987 351.057 240" fill="#313D41"/>
<path id="Fill 4" fill-rule="evenodd" clip-rule="evenodd" d="M564.742 360.896C573.628 354.06 580.664 367.464 588.79 359.967C591.967 357.041 596.057 355.617 600.371 356.089C610.759 360.413 588.568 369.582 597.146 375.412C600.631 379.302 609.052 381.883 607.891 388.055C602.958 394.332 594.688 383.601 589.518 381.404C583.635 376.274 579.285 384.295 574.213 386.462C570.909 388.174 562.19 388.862 564.336 382.88C572.606 372.866 578.139 370.221 564.742 360.896" fill="#313D41"/>
<path id="Fill 6_2" fill-rule="evenodd" clip-rule="evenodd" d="M227.063 391.342C225.676 376.106 247.722 373.809 254.414 385.018C264.046 402.728 226.645 411.672 227.063 391.342" fill="#313D41"/>
<path id="Fill 8" fill-rule="evenodd" clip-rule="evenodd" d="M202.522 378.269C218.755 378.752 205.45 412.303 192.024 400.476C181.105 392.22 189.531 375.696 202.522 378.269" fill="#313D41"/>
<path id="Fill 10_2" fill-rule="evenodd" clip-rule="evenodd" d="M291 387.557C290.766 395.416 278.825 400.878 273.722 393.551C265.682 377.94 288.251 368.645 291 387.557" fill="#313D41"/>
<path id="Fill 12" fill-rule="evenodd" clip-rule="evenodd" d="M559.618 507.713C593.988 506.407 562.633 474.638 546.793 469.244C522.929 465.766 536.576 511.11 559.618 507.713M563.397 527.785C534.686 529.933 511.841 508.99 515.485 481.321C508.779 434.648 573.572 447.325 592.665 472.952C612.42 497.591 594.812 530.998 563.397 527.785" fill="#313D41"/>
<path id="Fill 14" fill-rule="evenodd" clip-rule="evenodd" d="M591.014 780.454C591.03 780.674 591.045 780.894 591.06 781.114C614.043 779.613 629.879 789.475 617.981 757.992C600.085 670.001 594.431 690.848 515.085 699.182C503.582 705.561 510.681 756.672 508.507 771.724C509.792 781.248 511.273 788.743 522.306 787.062C545.233 785.324 568.11 782.569 591.014 780.454M483.086 722.485C482.373 699.602 485.607 681.988 511.507 680.636C537.363 679.328 566.443 672.163 590.96 682.495C595.015 686.508 599.511 687.141 604.954 686.856C627.365 680.633 640.816 775.961 634.394 790.177C632.444 795.875 625.832 794.687 621.038 794.802C597.041 793.843 573.46 798.034 549.74 800.5C478.766 815.933 485.286 778.603 483.086 722.485" fill="#313D41"/>
<path id="Fill 16" fill-rule="evenodd" clip-rule="evenodd" d="M252 737.802C255.638 718.839 266.449 698.542 285.165 691.11C304.697 681.171 309.699 726.735 326.84 715.597C371.568 653.395 361.515 716.223 382.031 708.146C391.568 700.078 410.226 674.623 421.476 691.872C422.226 701.069 430.202 712.744 425.553 721.019C418.924 722.713 414.28 715.381 411.574 710.358C400.628 704.008 384.758 743.611 367.132 724.883C361.954 721.807 358.11 706.802 351.014 712.823C311.352 775.138 298.665 696.749 283.329 715.509C275.098 722.587 262.567 758.119 252 737.802" fill="#313D41"/>
<path id="Fill 18" fill-rule="evenodd" clip-rule="evenodd" d="M379.917 765.693C389.927 767.483 413.067 760.408 415 773.353C414.673 775.953 412.809 777.387 408.327 777.597C364.099 777.484 320.01 783.033 275.785 781.829C258.743 766.92 369.091 767.069 379.909 765L379.917 765.693Z" fill="#313D41"/>
<path id="Fill 20_2" fill-rule="evenodd" clip-rule="evenodd" d="M347.848 802C427.216 803.636 309.169 820.537 290.506 813.134C284.143 802.896 339.791 802.312 347.848 802.076C347.848 802.05 347.848 802.025 347.848 802" fill="#313D41"/>
<path id="Fill 22_2" fill-rule="evenodd" clip-rule="evenodd" d="M588.978 752.66C590.337 778.627 527.625 757.225 548.119 746.359C560.83 753.215 572.734 754.211 584.192 744.197C589.44 742.805 588.355 749.12 588.978 752.66" fill="#313D41"/>
<path id="Fill 24" fill-rule="evenodd" clip-rule="evenodd" d="M567.006 718.416C568.043 695.088 600.933 721.595 587.985 728.55C577.907 733.12 566.707 732.122 567.006 718.416" fill="#313D41"/>
<path id="Fill 26" fill-rule="evenodd" clip-rule="evenodd" d="M530.094 721.407C528.613 710.711 545.138 712.664 546.898 720.512C548.587 732.188 528.792 733.775 530.094 721.407" fill="#313D41"/>
</g>
</g>
</svg>
